<?xml version="1.0" encoding="utf-8"?>
<!DOCTYPE svg PUBLIC "-//W3C//DTD SVG 1.1//EN" "http://www.w3.org/Graphics/SVG/1.1/DTD/svg11.dtd">
<svg xmlns="http://www.w3.org/2000/svg" xmlns:xlink="http://www.w3.org/1999/xlink" version="1.1" id="Layer_1" x="0px" y="0px" viewBox="0 0 128 128" enable-background="new 0 0 128 128" xml:space="preserve" width="128px" height="128px">
<path fill="#2C3E50" d="M111,25c3.3,0,6,2.7,6,6v66c0,3.3-2.7,6-6,6H17c-3.3,0-6-2.7-6-6V31c0-3.3,2.7-6,6-6H111 M111,21H17  c-5.5,0-10,4.5-10,10v66c0,5.5,4.5,10,10,10h94c5.5,0,10-4.5,10-10V31C121,25.5,116.5,21,111,21L111,21z"/>
<path fill="#2C3E50" d="M111.5,44H17c-0.6,0-1-0.4-1-1s0.4-1,1-1h94.5c0.6,0,1,0.4,1,1S112.1,44,111.5,44z"/>
<circle fill="#2C3E50" cx="21.5" cy="33.8" r="3"/>
<circle fill="#2C3E50" cx="30.5" cy="33.8" r="3"/>
<circle fill="#2C3E50" cx="39.5" cy="33.8" r="3"/>
<path fill="#3B97D3" d="M51.8,81.8l-17.6-7.8v-2.5l17.6-8.8V67l-12.2,5.6l12.2,5V81.8z"/>
<path fill="#3B97D3" d="M70.3,61.3L62,83.6h-4.2l8.3-22.2H70.3z"/>
<path fill="#3B97D3" d="M76.2,77.6l12.2-5L76.2,67v-4.3l17.6,8.8v2.5l-17.6,7.8V77.6z"/>

	
	
	<metadata>
		<rdf:RDF xmlns:rdf="http://www.w3.org/1999/02/22-rdf-syntax-ns#" xmlns:rdfs="http://www.w3.org/2000/01/rdf-schema#" xmlns:dc="http://purl.org/dc/elements/1.1/">
			<rdf:Description about="https://iconscout.com/legal#licenses" dc:title="App, Application, Browser, Internet, Page, Web, Code, Coding, Window" dc:description="App, Application, Browser, Internet, Page, Web, Code, Coding, Window" dc:publisher="Iconscout" dc:date="2016-12-14" dc:format="image/svg+xml" dc:language="en">
				<dc:creator>
					<rdf:Bag>
						<rdf:li>Laura Reen</rdf:li>
					</rdf:Bag>
				</dc:creator>
			</rdf:Description>
		</rdf:RDF>
    </metadata></svg>
