<?xml version="1.0" encoding="UTF-8"?><!DOCTYPE svg PUBLIC "-//W3C//DTD SVG 1.1//EN" "http://www.w3.org/Graphics/SVG/1.1/DTD/svg11.dtd"><svg xmlns="http://www.w3.org/2000/svg" xmlns:xlink="http://www.w3.org/1999/xlink" version="1.1" id="Ebene_1" x="0px" y="0px" width="64px" height="64px" viewBox="0 0 64 64" xml:space="preserve"><path d="M28.373 13.546a2 2 0 0 0-2.746 2.908L42.087 32l-16.46 15.546a2 2 0 0 0 2.746 2.908l18-17a2.001 2.001 0 0 0 0-2.908l-18-17z"/><path d="M32 0C23.453 0 15.417 3.329 9.374 9.373 3.329 15.417 0 23.453 0 32s3.33 16.583 9.374 22.626C15.417 60.671 23.453 64 32 64s16.583-3.329 22.626-9.373C60.671 48.583 64 40.547 64 32s-3.33-16.583-9.374-22.626C48.583 3.329 40.547 0 32 0zm19.797 51.798C46.509 57.087 39.479 60 32 60s-14.509-2.913-19.798-8.202C6.913 46.51 4 39.479 4 32s2.913-14.51 8.203-19.798C17.491 6.913 24.521 4 32 4s14.509 2.913 19.798 8.202C57.087 17.49 60 24.521 60 32s-2.913 14.51-8.203 19.798z"/><metadata><rdf:RDF xmlns:rdf="http://www.w3.org/1999/02/22-rdf-syntax-ns#" xmlns:rdfs="http://www.w3.org/2000/01/rdf-schema#" xmlns:dc="http://purl.org/dc/elements/1.1/"><rdf:Description about="https://iconscout.com/legal#licenses" dc:title="arrow,right" dc:description="arrow,right" dc:publisher="Iconscout" dc:date="2017-09-21" dc:format="image/svg+xml" dc:language="en"><dc:creator><rdf:Bag><rdf:li>Dario Ferrando</rdf:li></rdf:Bag></dc:creator></rdf:Description></rdf:RDF></metadata></svg>