<?xml version="1.0" encoding="UTF-8" standalone="no"?>
<svg xmlns:dc="http://purl.org/dc/elements/1.1/" xmlns:cc="http://creativecommons.org/ns#" xmlns:rdf="http://www.w3.org/1999/02/22-rdf-syntax-ns#" xmlns:svg="http://www.w3.org/2000/svg" xmlns="http://www.w3.org/2000/svg" xmlns:sodipodi="http://sodipodi.sourceforge.net/DTD/sodipodi-0.dtd" xmlns:inkscape="http://www.inkscape.org/namespaces/inkscape" width="16" height="16" viewBox="0 0 16 16" id="svg5604" version="1.1" inkscape:version="0.91 r13725" sodipodi:docname="6 Mountain side view ice forest nature atmosphere.svg">
  <defs id="defs5606"/>
  <sodipodi:namedview id="base" pagecolor="#ffffff" bordercolor="#666666" borderopacity="1.0" inkscape:pageopacity="0.0" inkscape:pageshadow="2" inkscape:zoom="11.2" inkscape:cx="7.4220703" inkscape:cy="2.5091472" inkscape:document-units="px" inkscape:current-layer="layer1" showgrid="true" units="px" inkscape:snap-bbox="true" inkscape:bbox-nodes="true" inkscape:snap-nodes="false" inkscape:window-width="1366" inkscape:window-height="705" inkscape:window-x="-8" inkscape:window-y="-8" inkscape:window-maximized="1">
    <inkscape:grid type="xygrid" id="grid5612"/>
  </sodipodi:namedview>
  
  <g inkscape:label="Layer 1" inkscape:groupmode="layer" id="layer1" transform="translate(0,-1036.3622)">
    <g id="g6015">
      <path sodipodi:nodetypes="ccccc" inkscape:connector-curvature="0" id="path6696" d="m 5.8635241,1040.0356 4.6269879,7.8265 -9.9809681,0 4.6269881,-7.8265 c 0.1856126,-0.2253 0.5413796,-0.2253 0.7269921,0 z" style="opacity:1;fill:#535672;fill-opacity:1;stroke:none;stroke-width:0.26458332;stroke-linecap:round;stroke-linejoin:round;stroke-opacity:1"/>
      <path style="opacity:1;fill:#535672;fill-opacity:1;stroke:none;stroke-width:0.26458332;stroke-linecap:round;stroke-linejoin:round;stroke-opacity:1" d="m 9.0214554,1045.2867 2.1775856,-3.6627 c 0.148763,-0.1795 0.433936,-0.1795 0.582713,0 l 3.708703,6.2381 -5.5000631,0" id="path6698" inkscape:connector-curvature="0" sodipodi:nodetypes="ccccc"/>
      <path style="opacity:1;fill:#ffffff;fill-opacity:1;stroke:none;stroke-width:0.26458332;stroke-linecap:round;stroke-linejoin:round;stroke-opacity:1" d="m 5.8635241,1040.0356 0.5783736,0.9783 0.5783735,0.9783 0.5783735,0.9783 -1.0704415,0.8161 -1.0704453,-0.9517 -0.926812,0.9266 -0.5511609,-1.7693 1.156747,-1.9566 c 0.1856126,-0.2253 0.5413796,-0.2253 0.7269921,0 z" id="path6706" inkscape:connector-curvature="0" sodipodi:nodetypes="cccccccccc"/>
      <path inkscape:connector-curvature="0" id="path5313" d="m 5.5,1039.3672 c -0.2784548,0 -0.5575085,0.1159 -0.75,0.3496 a 0.50004994,0.50004994 0 0 0 -0.042969,0.064 l -4.62695308,7.8262 a 0.50004994,0.50004994 0 0 0 0.4296875,0.7539 l 9.98046838,0 a 0.50004994,0.50004994 0 0 0 0.431641,-0.7539 l -4.6289062,-7.8262 A 0.50004994,0.50004994 0 0 0 6.25,1039.7168 c -0.1924915,-0.2337 -0.4715452,-0.3496 -0.75,-0.3496 z m 0,1.0371 4.1132812,6.957 -8.2265624,0 L 5.5,1040.4043 Z" style="color:#000000;font-style:normal;font-variant:normal;font-weight:normal;font-stretch:normal;font-size:medium;line-height:normal;font-family:sans-serif;text-indent:0;text-align:start;text-decoration:none;text-decoration-line:none;text-decoration-style:solid;text-decoration-color:#000000;letter-spacing:normal;word-spacing:normal;text-transform:none;direction:ltr;block-progression:tb;writing-mode:lr-tb;baseline-shift:baseline;text-anchor:start;white-space:normal;clip-rule:nonzero;display:inline;overflow:visible;visibility:visible;opacity:1;isolation:auto;mix-blend-mode:normal;color-interpolation:sRGB;color-interpolation-filters:linearRGB;solid-color:#000000;solid-opacity:1;fill:#000000;fill-opacity:1;fill-rule:nonzero;stroke:none;stroke-width:0.99999988;stroke-linecap:round;stroke-linejoin:round;stroke-miterlimit:4;stroke-dasharray:none;stroke-dashoffset:0;stroke-opacity:1;color-rendering:auto;image-rendering:auto;shape-rendering:auto;text-rendering:auto;enable-background:accumulate"/>
      <path sodipodi:nodetypes="cccccc" inkscape:connector-curvature="0" id="path6708" d="m 10.210812,1043.2862 0.988229,-1.6622 c 0.148763,-0.1795 0.433936,-0.1795 0.582713,0 l 0.995096,1.6975 -1.279113,0.9707 z" style="opacity:1;fill:#ffffff;fill-opacity:1;stroke:none;stroke-width:0.26458332;stroke-linecap:round;stroke-linejoin:round;stroke-opacity:1"/>
      <path inkscape:connector-curvature="0" id="path5315" d="m 11.490234,1040.9883 c -0.250888,0 -0.501236,0.1058 -0.675781,0.3164 a 0.50004994,0.50004994 0 0 0 -0.04492,0.064 l -2.1777341,3.6621 a 0.50011614,0.50011614 0 1 0 0.859375,0.5118 l 2.0390621,-3.4317 3.121094,5.25 -4.6210936,0 a 0.50004994,0.50004994 0 1 0 0,1 l 5.4999996,0 a 0.50004994,0.50004994 0 0 0 0.429688,-0.7539 l -3.708984,-6.2383 a 0.50004994,0.50004994 0 0 0 -0.04492,-0.064 c -0.17455,-0.2106 -0.424894,-0.3164 -0.675782,-0.3164 z" style="color:#000000;font-style:normal;font-variant:normal;font-weight:normal;font-stretch:normal;font-size:medium;line-height:normal;font-family:sans-serif;text-indent:0;text-align:start;text-decoration:none;text-decoration-line:none;text-decoration-style:solid;text-decoration-color:#000000;letter-spacing:normal;word-spacing:normal;text-transform:none;direction:ltr;block-progression:tb;writing-mode:lr-tb;baseline-shift:baseline;text-anchor:start;white-space:normal;clip-rule:nonzero;display:inline;overflow:visible;visibility:visible;opacity:1;isolation:auto;mix-blend-mode:normal;color-interpolation:sRGB;color-interpolation-filters:linearRGB;solid-color:#000000;solid-opacity:1;fill:#000000;fill-opacity:1;fill-rule:nonzero;stroke:none;stroke-width:0.99999988;stroke-linecap:round;stroke-linejoin:round;stroke-miterlimit:4;stroke-dasharray:none;stroke-dashoffset:0;stroke-opacity:1;color-rendering:auto;image-rendering:auto;shape-rendering:auto;text-rendering:auto;enable-background:accumulate"/>
      <path inkscape:connector-curvature="0" id="path5317" d="m 3.96875,1041.8555 a 0.50004994,0.50004994 0 0 0 -0.453125,0.666 l 0.5039062,1.5 a 0.50004994,0.50004994 0 0 0 0.828125,0.1933 l 0.6464844,-0.6464 0.6464844,0.6464 a 0.50004994,0.50004994 0 0 0 0.7070312,0 l 0.9863282,-0.9863 a 0.50004994,0.50004994 0 1 0 -0.7070313,-0.707 l -0.6328125,0.6328 -0.6464844,-0.6465 a 0.50004994,0.50004994 0 0 0 -0.7070312,0 l -0.4296875,0.4297 -0.2460937,-0.7344 A 0.50004994,0.50004994 0 0 0 3.96875,1041.8555 Z" style="color:#000000;font-style:normal;font-variant:normal;font-weight:normal;font-stretch:normal;font-size:medium;line-height:normal;font-family:sans-serif;text-indent:0;text-align:start;text-decoration:none;text-decoration-line:none;text-decoration-style:solid;text-decoration-color:#000000;letter-spacing:normal;word-spacing:normal;text-transform:none;direction:ltr;block-progression:tb;writing-mode:lr-tb;baseline-shift:baseline;text-anchor:start;white-space:normal;clip-rule:nonzero;display:inline;overflow:visible;visibility:visible;opacity:1;isolation:auto;mix-blend-mode:normal;color-interpolation:sRGB;color-interpolation-filters:linearRGB;solid-color:#000000;solid-opacity:1;fill:#000000;fill-opacity:1;fill-rule:nonzero;stroke:none;stroke-width:0.99999988px;stroke-linecap:round;stroke-linejoin:round;stroke-miterlimit:4;stroke-dasharray:none;stroke-dashoffset:0;stroke-opacity:1;color-rendering:auto;image-rendering:auto;shape-rendering:auto;text-rendering:auto;enable-background:accumulate"/>
      <path inkscape:connector-curvature="0" id="path5319" d="m 10.169922,1042.8574 a 0.50004994,0.50004994 0 0 0 -0.2851564,0.9004 l 1.3007814,1 a 0.50004994,0.50004994 0 0 0 0.609375,0 l 1.300781,-1 a 0.50004994,0.50004994 0 1 0 -0.609375,-0.793 l -0.996094,0.7657 -0.99414,-0.7657 a 0.50004994,0.50004994 0 0 0 -0.326172,-0.1074 z" style="color:#000000;font-style:normal;font-variant:normal;font-weight:normal;font-stretch:normal;font-size:medium;line-height:normal;font-family:sans-serif;text-indent:0;text-align:start;text-decoration:none;text-decoration-line:none;text-decoration-style:solid;text-decoration-color:#000000;letter-spacing:normal;word-spacing:normal;text-transform:none;direction:ltr;block-progression:tb;writing-mode:lr-tb;baseline-shift:baseline;text-anchor:start;white-space:normal;clip-rule:nonzero;display:inline;overflow:visible;visibility:visible;opacity:1;isolation:auto;mix-blend-mode:normal;color-interpolation:sRGB;color-interpolation-filters:linearRGB;solid-color:#000000;solid-opacity:1;fill:#000000;fill-opacity:1;fill-rule:nonzero;stroke:none;stroke-width:0.99999988px;stroke-linecap:round;stroke-linejoin:round;stroke-miterlimit:4;stroke-dasharray:none;stroke-dashoffset:0;stroke-opacity:1;color-rendering:auto;image-rendering:auto;shape-rendering:auto;text-rendering:auto;enable-background:accumulate"/>
    </g>
  </g>

	<metadata>
		<rdf:RDF xmlns:rdf="http://www.w3.org/1999/02/22-rdf-syntax-ns#" xmlns:rdfs="http://www.w3.org/2000/01/rdf-schema#" xmlns:dc="http://purl.org/dc/elements/1.1/">
			<rdf:Description about="https://iconscout.com/legal#licenses" dc:title="6 Mountain side view ice forest nature atmosphere" dc:description="6 Mountain side view ice forest nature atmosphere" dc:publisher="Iconscout" dc:date="2017-02-19" dc:format="image/svg+xml" dc:language="en">
				<dc:creator>
					<rdf:Bag>
						<rdf:li>Jemis Mali</rdf:li>
					</rdf:Bag>
				</dc:creator>
			</rdf:Description>
		</rdf:RDF>
    </metadata></svg>
